<svg width="155" height="40" viewBox="0 0 155 40" fill="none" xmlns="http://www.w3.org/2000/svg">
<g id="Logo / Mercado Pago / Colour">
<g id="Vector">
<path d="M152.594 6.67608C151.577 5.4099 150.042 4.77682 147.97 4.77682C145.898 4.77682 144.363 5.4099 143.347 6.67608C142.33 7.94225 141.831 9.45782 141.831 11.1844C141.831 12.9494 142.33 14.465 143.347 15.7119C144.363 16.9589 145.898 17.592 147.97 17.592C150.042 17.592 151.577 16.9589 152.594 15.7119C153.61 14.465 154.109 12.9494 154.109 11.1844C154.128 9.43864 153.61 7.94225 152.594 6.67608ZM150.08 13.9662C149.582 14.6184 148.891 14.9446 147.97 14.9446C147.049 14.9446 146.339 14.6184 145.841 13.9662C145.342 13.3139 145.092 12.3739 145.092 11.1844C145.092 9.9758 145.342 9.05495 145.841 8.40268C146.339 7.75041 147.049 7.42427 147.97 7.42427C148.891 7.42427 149.601 7.75041 150.08 8.40268C150.579 9.05495 150.829 9.9758 150.829 11.1844C150.829 12.393 150.579 13.3139 150.08 13.9662Z" fill="#141685"/>
<path d="M126.656 5.60175C125.62 5.08377 124.45 4.81519 123.126 4.81519C121.093 4.81519 119.654 5.35235 118.81 6.4075C118.292 7.07895 117.985 7.96143 117.927 9.01658H120.978C121.054 8.55615 121.208 8.19165 121.419 7.90388C121.726 7.53938 122.263 7.34753 123.03 7.34753C123.702 7.34753 124.22 7.44345 124.565 7.6353C124.91 7.82714 125.083 8.17246 125.083 8.65207C125.083 9.05495 124.853 9.3619 124.412 9.55374C124.162 9.66885 123.74 9.76477 123.145 9.82232L122.071 9.95662C120.843 10.1101 119.922 10.3787 119.289 10.724C118.138 11.3954 117.563 12.4698 117.563 13.947C117.563 15.098 117.927 15.9805 118.637 16.5944C119.347 17.2083 120.268 17.4769 121.361 17.5345C128.248 17.8414 128.172 13.9086 128.229 13.0837V8.57534C128.21 7.11732 127.692 6.13891 126.656 5.60175ZM125.064 12.489C125.045 13.5441 124.738 14.2731 124.162 14.676C123.587 15.0789 122.954 15.2707 122.263 15.2707C121.822 15.2707 121.457 15.1556 121.15 14.9062C120.843 14.676 120.69 14.2731 120.69 13.736C120.69 13.122 120.939 12.6808 121.438 12.393C121.726 12.2204 122.225 12.0861 122.896 11.971L123.606 11.8367C123.97 11.76 124.239 11.7024 124.45 11.6257C124.661 11.5489 124.853 11.453 125.064 11.3187V12.489Z" fill="#141685"/>
<path d="M110.963 7.52019C111.75 7.52019 112.325 7.76959 112.709 8.2492C112.958 8.61371 113.131 9.01658 113.189 9.45782H116.584C116.392 7.75041 115.798 6.54179 114.781 5.87033C113.764 5.19887 112.46 4.85355 110.867 4.85355C108.987 4.85355 107.529 5.42909 106.474 6.58015C105.419 7.73122 104.882 9.32353 104.882 11.3954C104.882 13.218 105.361 14.7144 106.321 15.8654C107.28 17.0165 108.776 17.592 110.829 17.592C112.863 17.592 114.416 16.9014 115.452 15.5201C116.105 14.676 116.469 13.7551 116.546 12.8151H113.17C113.093 13.4482 112.901 13.9662 112.575 14.369C112.249 14.7719 111.692 14.9638 110.925 14.9638C109.831 14.9638 109.083 14.465 108.68 13.4674C108.469 12.9302 108.354 12.2204 108.354 11.3379C108.354 10.417 108.469 9.66885 108.68 9.1125C109.083 8.05736 109.851 7.52019 110.963 7.52019Z" fill="#141685"/>
<path d="M103.961 4.87274C96.9778 4.87274 97.3999 11.0501 97.3999 11.0501V17.3234H100.565V11.4338C100.565 10.4746 100.68 9.76477 100.93 9.28516C101.371 8.46023 102.215 8.05736 103.481 8.05736C103.577 8.05736 103.712 8.05736 103.865 8.07654C104.019 8.07654 104.191 8.09573 104.402 8.11491V4.89192C104.268 4.89192 104.172 4.87274 104.134 4.87274C104.076 4.87274 104.019 4.87274 103.961 4.87274Z" fill="#141685"/>
<path d="M92.3352 14.0429C92.2009 14.2347 92.0666 14.3882 91.894 14.5225C91.4527 14.887 90.8388 15.0021 90.129 15.0021C89.4575 15.0021 88.9204 14.9062 88.4408 14.5992C87.6542 14.1196 87.213 13.2947 87.1554 12.0861H95.9227C95.9419 11.0501 95.9035 10.2444 95.8268 9.70722C95.6733 8.76718 95.3663 7.94225 94.8675 7.21324C94.3304 6.40749 93.6206 5.81278 92.7956 5.42909C91.9515 5.06458 91.0115 4.87274 89.9755 4.87274C88.2105 4.87274 86.7717 5.42909 85.6782 6.54179C84.5655 7.65448 84.0283 9.24679 84.0283 11.3379C84.0283 13.5633 84.6422 15.1748 85.87 16.1532C87.0979 17.1316 88.4983 17.6304 90.1098 17.6304C92.0474 17.6304 93.563 17.0549 94.6373 15.8846C95.2129 15.2707 95.5774 14.6568 95.7309 14.0621L92.3352 14.0429ZM88.0763 8.13409C88.5175 7.67367 89.1506 7.44345 89.9563 7.44345C90.7045 7.44345 91.3184 7.65448 91.8172 8.09573C92.316 8.51778 92.6038 9.17005 92.6613 9.99498H87.2513C87.3664 9.22761 87.635 8.59452 88.0763 8.13409Z" fill="#141685"/>
<path d="M82.7238 17.3043H79.8269V10.0142C79.8269 9.34272 79.6159 7.7696 77.6975 7.7696C76.4313 7.7696 75.5105 8.69045 75.5105 10.0142V17.3043H72.6136V10.0142C72.6136 9.34272 72.4218 7.7696 70.5033 7.7696C69.218 7.7696 68.3163 8.69045 68.3163 10.0142V17.3043H65.4194V10.1101C65.4194 7.09814 67.4146 4.83438 70.5033 4.83438C72.0381 4.83438 73.2851 5.48665 74.0908 6.50343C74.9541 5.46747 76.2203 4.83438 77.6783 4.83438C80.8437 4.83438 82.7046 7.0214 82.7046 10.1101L82.7238 17.3043Z" fill="#141685"/>
<path d="M140.891 1.05504C140.891 1.05504 137.706 0.709717 137.706 3.28043V6.67608C137.361 6.10054 136.901 5.6593 136.325 5.35235C135.769 5.02622 135.117 4.87274 134.387 4.87274C132.814 4.87274 131.548 5.46746 130.608 6.63771C129.668 7.80796 129.189 9.51537 129.189 11.5681C129.189 13.3523 129.668 14.8103 130.627 15.9422C131.587 17.074 133.467 17.5728 135.136 17.5728C140.968 17.5728 140.891 12.5657 140.891 12.5657V1.05504ZM137.093 13.9853C136.632 14.6568 135.961 14.9829 135.059 14.9829C134.176 14.9829 133.505 14.6568 133.064 13.9853C132.623 13.3139 132.411 12.3547 132.411 11.242C132.411 10.206 132.623 9.34271 133.064 8.65207C133.486 7.96143 134.176 7.61611 135.078 7.61611C135.673 7.61611 136.21 7.80796 136.67 8.19165C137.419 8.82473 137.783 9.95662 137.783 11.4338C137.783 12.4698 137.553 13.3331 137.093 13.9853Z" fill="#141685"/>
</g>
<g id="Vector_2">
<path d="M88.5559 37.4096C88.5559 37.8317 88.4024 38.1962 88.0955 38.5032C87.7885 38.8101 87.4049 38.9636 86.9828 38.9636H85.4097V27.9709C85.4097 25.8414 86.1387 24.4985 87.3089 23.5777C88.0955 22.9829 89.2657 22.4074 91.4528 22.4074C92.93 22.4074 94.6566 22.9829 95.5966 24.1148C96.6518 25.4002 97.0738 26.8198 97.0738 28.6999C97.0738 30.6375 96.6134 32.1915 95.6733 33.3809C94.7525 34.5512 93.5439 35.1267 92.0859 35.1267C91.3185 35.1267 90.6278 34.9924 90.0331 34.7238C89.4192 34.4169 88.9204 33.9373 88.5367 33.3042L88.5559 37.4096ZM93.8508 28.8342C93.8508 27.6448 93.6206 26.7239 93.1602 26.0716C92.6998 25.4385 92.0283 25.1124 91.165 25.1124C90.3209 25.1124 89.6686 25.4385 89.2082 26.0716C88.7669 26.6472 88.5559 27.568 88.5559 28.8342C88.5559 30.0044 88.7861 30.8677 89.2466 31.4433C89.707 32.0955 90.3784 32.4025 91.2417 32.4025C92.0475 32.4025 92.6806 32.0764 93.141 31.4433C93.6206 30.8102 93.8508 29.9469 93.8508 28.8342Z" fill="#05B0D9"/>
<path d="M118.042 34.1099V33.3234C117.486 34.1867 116.757 34.7046 115.817 34.9348C114.896 35.1459 113.956 35.0691 113.054 34.7046C112.134 34.3401 111.347 33.6495 110.695 32.6711C110.042 31.6735 109.716 30.3689 109.716 28.7383C109.716 26.839 110.158 25.3043 111.021 24.134C111.884 22.9638 113.285 22.4266 115.203 22.369C117.102 22.3115 118.196 22.7527 119.27 23.5585C120.44 24.4601 121.15 25.8222 121.15 27.9709V34.4361C121.15 36.4888 119.711 40.3065 115.203 39.9804C112.402 39.7693 110.867 38.6374 109.985 36.0284H113.323C113.572 36.4504 113.937 36.7766 114.436 37.0068C114.935 37.237 115.433 37.2945 115.932 37.1986C116.431 37.0835 116.891 36.7957 117.313 36.2969C117.735 35.8365 117.985 35.0883 118.042 34.1099ZM112.824 28.8342C112.824 30.9445 113.438 32.1147 114.647 32.3449C115.855 32.5752 116.757 32.2874 117.352 31.5008C117.62 31.1747 117.831 30.6375 117.946 29.9277C118.062 29.2179 118.081 28.4889 117.966 27.7982C117.87 27.0884 117.601 26.4745 117.217 25.9182C116.815 25.3618 116.239 25.0932 115.472 25.0932C114.436 25.0932 113.745 25.4769 113.361 26.2443C113.016 26.9925 112.824 27.8558 112.824 28.8342Z" fill="#05B0D9"/>
<path d="M107.011 23.2515C105.975 22.7335 104.805 22.465 103.481 22.465C101.448 22.465 100.009 23.0021 99.1649 24.0573C98.6469 24.7287 98.34 25.6112 98.2824 26.6664H101.333C101.409 26.2059 101.563 25.8222 101.774 25.5537C102.081 25.1892 102.618 24.9973 103.366 24.9973C104.038 24.9973 104.556 25.0932 104.901 25.2851C105.246 25.4769 105.419 25.8222 105.419 26.3018C105.419 26.7047 105.189 27.0117 104.748 27.2035C104.498 27.3186 104.076 27.4145 103.481 27.4721L102.407 27.6064C101.179 27.7599 100.258 28.0284 99.6253 28.3738C98.4743 29.0452 97.8987 30.1196 97.8987 31.5968C97.8987 32.7478 98.2632 33.6303 98.9731 34.2442C99.6829 34.8581 100.604 35.1267 101.697 35.1842C108.584 35.4912 108.508 31.5584 108.565 30.7335V26.2059C108.565 24.7479 108.047 23.7695 107.011 23.2515ZM105.419 30.1196C105.4 31.1747 105.093 31.9037 104.517 32.3066C103.942 32.7094 103.309 32.9013 102.618 32.9013C102.177 32.9013 101.812 32.7862 101.505 32.5368C101.198 32.3066 101.045 31.9037 101.045 31.3665C101.045 30.7718 101.294 30.3114 101.793 30.0236C102.081 29.851 102.561 29.7167 103.251 29.6016L103.961 29.4673C104.326 29.3905 104.594 29.333 104.805 29.2563C105.016 29.1795 105.208 29.0836 105.419 28.9493V30.1196Z" fill="#05B0D9"/>
<path d="M133.121 24.2491C132.105 22.9829 130.57 22.3499 128.498 22.3499C126.426 22.3499 124.891 22.9829 123.874 24.2491C122.858 25.5153 122.359 27.0117 122.359 28.7575C122.359 30.5224 122.858 32.038 123.874 33.285C124.891 34.532 126.426 35.1651 128.498 35.1651C130.57 35.1651 132.105 34.532 133.121 33.285C134.138 32.038 134.637 30.5224 134.637 28.7575C134.637 27.0117 134.138 25.5153 133.121 24.2491ZM130.608 31.5392C130.109 32.1915 129.419 32.5176 128.498 32.5176C127.577 32.5176 126.867 32.1915 126.368 31.5392C125.87 30.8869 125.62 29.9661 125.62 28.7575C125.62 27.5488 125.87 26.628 126.368 25.9757C126.867 25.3234 127.577 24.9973 128.498 24.9973C129.419 24.9973 130.129 25.3234 130.608 25.9757C131.107 26.628 131.356 27.5488 131.356 28.7575C131.337 29.9469 131.107 30.8869 130.608 31.5392Z" fill="#05B0D9"/>
</g>
<path id="path7_1_" d="M56.7865 18.3979C56.7865 8.26849 44.2015 0 28.6813 0C13.1419 0 0.556885 8.26849 0.556885 18.3979C0.556885 18.6665 0.556885 19.3763 0.556885 19.4722C0.556885 30.2155 11.5688 38.9252 28.6813 38.9252C45.9089 38.9252 56.8057 30.2155 56.8057 19.4722C56.7865 19.0885 56.7865 18.8775 56.7865 18.3979Z" fill="#141685"/>
<path id="path9_1_" d="M55.7121 18.3787C55.7121 27.9325 43.6068 35.6831 28.6813 35.6831C13.7558 35.6831 1.65039 27.9325 1.65039 18.3787C1.65039 8.82484 13.7558 1.09351 28.6813 1.09351C43.6068 1.09351 55.7121 8.82484 55.7121 18.3787Z" fill="#05B0D9"/>
<g id="Vector_3">
<path d="M19.703 12.9303C19.6838 12.9495 19.4152 13.2372 19.5879 13.4675C20.0099 14.0046 21.3337 14.3308 22.6574 14.0238C23.444 13.8511 24.4607 13.0454 25.4583 12.2588C26.5327 11.4147 27.5878 10.5706 28.6429 10.2253C29.7748 9.86078 30.4847 10.0143 30.9643 10.1677C31.4822 10.3212 32.0961 10.6665 33.0937 11.4147C34.9354 12.796 42.379 19.2995 43.6644 20.4122C44.7003 19.9518 49.3046 17.9566 55.5587 16.5945C55.0216 13.2564 52.988 10.2061 49.9185 7.71213C45.6404 9.51546 40.403 10.4555 35.2808 7.94234C35.2616 7.92316 32.4798 6.61861 29.7556 6.67617C25.6885 6.77209 23.9236 8.53706 22.0627 10.3979L19.703 12.9303Z" fill="white"/>
<path d="M43.3766 21.1029C43.2807 21.0261 34.6285 13.4483 32.6717 11.9711C31.5398 11.1269 30.9067 10.8967 30.2353 10.82C29.8899 10.7816 29.4103 10.8392 29.0842 10.9351C28.1633 11.1845 26.9739 11.9902 25.9188 12.8152C24.8252 13.6977 23.7893 14.5034 22.8301 14.7336C21.6023 15.0022 20.1059 14.6761 19.4152 14.2156C19.1467 14.0238 18.9356 13.8128 18.8589 13.6017C18.6095 13.0262 19.0699 12.5466 19.1467 12.4699L21.5447 9.87995C21.8133 9.61137 22.1011 9.32361 22.3888 9.05502C21.6214 9.15095 20.9116 9.34279 20.2018 9.55382C19.3385 9.80322 18.4944 10.0334 17.6694 10.0334C17.3241 10.0334 15.4249 9.72648 15.0795 9.63056C12.9117 9.01665 11.0124 8.44112 8.17315 7.11739C4.7775 9.64974 2.51374 12.8152 1.84229 16.2876C2.3219 16.4218 3.10846 16.6521 3.45378 16.7288C11.1467 18.4362 13.5448 20.2012 13.9669 20.5657C14.4465 20.0477 15.1179 19.7024 15.8661 19.7024C16.7102 19.7024 17.4776 20.1244 17.9572 20.7959C18.3985 20.4506 19.0124 20.1436 19.7989 20.1436C20.1634 20.1436 20.5279 20.2012 20.8924 20.3355C21.7557 20.6424 22.2162 21.218 22.4464 21.7359C22.7341 21.6016 23.0986 21.5057 23.5207 21.5057C23.9428 21.5057 24.3648 21.6016 24.8061 21.7935C26.2257 22.4074 26.4367 23.7887 26.3216 24.8438C26.4176 24.8246 26.5327 24.8246 26.6286 24.8246C28.3168 24.8246 29.6789 26.1867 29.6789 27.875C29.6789 28.3929 29.5446 28.8917 29.3144 29.3138C29.7748 29.5632 30.9451 30.1579 31.9619 30.0236C32.7868 29.9277 33.0937 29.6399 33.2088 29.4865C33.2856 29.3713 33.3623 29.2562 33.2856 29.1603L31.1177 26.7431C31.1177 26.7431 30.7532 26.3978 30.8875 26.2826C31.0026 26.1484 31.2328 26.3402 31.3863 26.4745C32.499 27.3953 33.8419 28.7958 33.8419 28.7958C33.8611 28.815 33.957 28.9877 34.4558 29.0836C34.8779 29.1603 35.6453 29.1219 36.1632 28.6807C36.2975 28.5656 36.4318 28.4313 36.5469 28.297L36.5278 28.3162C37.0841 27.6064 36.4702 26.8966 36.4702 26.8966L33.9379 24.0573C33.9379 24.0573 33.5734 23.7311 33.7076 23.5968C33.8227 23.4817 34.053 23.6544 34.2064 23.7887C35.0122 24.4601 36.1441 25.592 37.2184 26.6663C37.4294 26.8198 38.3886 27.4145 39.6548 26.5896C40.4222 26.0908 40.5757 25.4769 40.5565 24.9973C40.4989 24.3834 40.0193 23.9422 40.0193 23.9422L36.5661 20.4698C36.5661 20.4698 36.2016 20.1628 36.3359 20.0093C36.451 19.875 36.6812 20.0669 36.8347 20.2012C37.9282 21.122 40.921 23.8654 40.921 23.8654C40.9594 23.9038 41.9953 24.6328 43.2615 23.827C43.7219 23.5393 44.0097 23.098 44.0289 22.5801C44.0097 21.6208 43.3766 21.1029 43.3766 21.1029Z" fill="white"/>
<path d="M26.6094 25.5153C26.0722 25.5153 25.4775 25.8222 25.4008 25.7839C25.3624 25.7647 25.4391 25.5345 25.4775 25.4194C25.5351 25.3043 26.2257 23.1748 24.5183 22.4266C23.1946 21.8511 22.3888 22.5033 22.1202 22.7911C22.0435 22.8678 22.0243 22.8678 22.0051 22.7719C21.9859 22.3882 21.8133 21.3523 20.6622 21.0069C19.0315 20.5081 17.9956 21.64 17.727 22.0621C17.6119 21.1412 16.8253 20.4122 15.8661 20.4122C14.8301 20.4122 13.986 21.2563 13.986 22.2923C13.986 23.3283 14.8301 24.1724 15.8661 24.1724C16.3649 24.1724 16.8253 23.9805 17.1707 23.6544C17.1898 23.6736 17.1898 23.6736 17.1707 23.7119C17.0939 24.1724 16.9404 25.8798 18.7246 26.5704C19.4344 26.839 20.0483 26.6472 20.5471 26.2827C20.7006 26.1676 20.7198 26.2251 20.7006 26.3594C20.643 26.8006 20.7198 27.7215 22.0243 28.2587C23.0219 28.6615 23.6166 28.2395 24.0003 27.8942C24.173 27.7407 24.2113 27.7599 24.2305 28.0093C24.2689 29.2754 25.324 30.273 26.5902 30.273C27.8948 30.273 28.9691 29.2179 28.9691 27.8942C28.9691 26.5704 27.9139 25.5153 26.6094 25.5153Z" fill="white"/>
</g>
<path id="path19_1_" d="M43.7219 20.2011C41.0553 17.8798 34.8971 12.5082 33.228 11.2612C32.2688 10.5513 31.6166 10.1677 31.0602 9.99499C30.8108 9.91825 30.4463 9.82233 29.9859 9.82233C29.5638 9.82233 29.1034 9.89907 28.6238 10.0525C27.5494 10.3979 26.4751 11.242 25.4392 12.0669L25.3816 12.1053C24.4032 12.8727 23.4056 13.6784 22.6574 13.8319C22.3313 13.9086 21.986 13.947 21.6406 13.947C20.7965 13.947 20.0291 13.6976 19.7414 13.3331C19.703 13.2755 19.7222 13.1796 19.8373 13.0261L19.8565 13.0069L22.197 10.4746C24.0387 8.6329 25.7653 6.9063 29.7748 6.81037C29.8324 6.81037 29.9091 6.81037 29.9667 6.81037C32.4607 6.81037 34.9355 7.92307 35.2232 8.05736C37.5637 9.18924 39.9618 9.76478 42.379 9.78396C44.8922 9.78396 47.5013 9.17006 50.2446 7.90389C49.9377 7.65449 49.6307 7.40509 49.2854 7.15569C46.8874 8.19165 44.5852 8.72882 42.379 8.72882C40.1153 8.72882 37.8707 8.19165 35.6837 7.11732C35.5685 7.05977 32.8252 5.77441 29.9667 5.77441C29.89 5.77441 29.8132 5.77441 29.7365 5.77441C26.3792 5.85115 24.4991 7.04059 23.2138 8.09573C21.986 8.1341 20.9116 8.42187 19.9524 8.69045C19.1083 8.92066 18.3793 9.13169 17.6695 9.13169C17.3817 9.13169 16.8445 9.11251 16.8062 9.11251C15.9812 9.09332 11.8566 8.07655 8.55685 6.82956C8.21153 7.05977 7.90458 7.30917 7.57845 7.55857C11.0125 8.95903 15.1947 10.0525 16.5184 10.1485C16.8829 10.1677 17.2858 10.206 17.6695 10.206C18.5328 10.206 19.4152 9.95662 20.2594 9.72641C20.7582 9.59212 21.3145 9.43864 21.89 9.32354C21.7366 9.47701 21.5831 9.63049 21.4296 9.78396L19.0316 12.3355C18.8397 12.5273 18.4368 13.0261 18.7054 13.6592C18.8205 13.9086 19.0316 14.158 19.3385 14.3499C19.914 14.7335 20.9308 14.9829 21.8709 14.9829C22.2354 14.9829 22.5615 14.9446 22.8876 14.8678C23.8852 14.6376 24.9404 13.8127 26.0531 12.9302C26.9355 12.2204 28.2017 11.3379 29.1609 11.0693C29.4295 10.9926 29.7557 10.9542 30.0242 10.9542C30.101 10.9542 30.1777 10.9542 30.2545 10.9734C30.8875 11.0501 31.5014 11.2612 32.595 12.0861C34.5518 13.5633 43.204 21.1412 43.2999 21.1987C43.2999 21.1987 43.8562 21.6783 43.8179 22.4649C43.7987 22.9061 43.5493 23.2898 43.1272 23.5776C42.7627 23.8078 42.379 23.9229 41.9953 23.9229C41.4198 23.9229 41.0169 23.6543 40.9977 23.6351C40.9594 23.6159 38.005 20.8918 36.9115 19.9709C36.7388 19.8174 36.5661 19.7023 36.3935 19.7023C36.2976 19.7023 36.2208 19.7407 36.1633 19.8174C35.9906 20.0285 36.1824 20.3162 36.4127 20.5081L39.885 23.9996C39.885 23.9996 40.3263 24.4025 40.3647 24.9397C40.3838 25.5152 40.1153 25.9948 39.5397 26.3785C39.1369 26.6471 38.7148 26.7814 38.3119 26.7814C37.7748 26.7814 37.4103 26.532 37.3143 26.4744L36.8155 25.9756C35.9139 25.074 34.9738 24.1531 34.2832 23.5776C34.1105 23.4433 33.9379 23.309 33.7652 23.309C33.6885 23.309 33.6117 23.3474 33.5542 23.4049C33.4774 23.5008 33.4199 23.6543 33.6117 23.9037C33.6885 24.0188 33.7844 24.0956 33.7844 24.0956L36.3167 26.9349C36.3359 26.954 36.8347 27.5488 36.3743 28.1435L36.2784 28.2586C36.2016 28.3353 36.1249 28.4121 36.0482 28.4888C35.6261 28.8341 35.0314 28.8725 34.8204 28.8725C34.7052 28.8725 34.5901 28.8533 34.475 28.8341C34.2256 28.7957 34.053 28.719 33.9762 28.6231L33.9379 28.5847C33.8036 28.4504 32.5182 27.1459 31.4631 26.2634C31.3288 26.1483 31.1561 25.9948 30.9643 25.9948C30.8684 25.9948 30.7916 26.0332 30.7341 26.0907C30.523 26.3209 30.83 26.6663 30.9643 26.7814L33.1129 29.1602C33.1129 29.1794 33.0746 29.237 33.0362 29.3137C32.9595 29.4288 32.6909 29.6782 31.9235 29.7741C31.8276 29.7933 31.7317 29.7933 31.6357 29.7933C30.83 29.7933 29.9667 29.4096 29.5254 29.1602C29.7365 28.7382 29.8324 28.2586 29.8324 27.7982C29.8324 26.014 28.3936 24.5752 26.6094 24.5752C26.571 24.5752 26.5327 24.5752 26.4943 24.5752C26.5519 23.7694 26.4368 22.2347 24.8636 21.5632C24.4032 21.3714 23.962 21.2754 23.5207 21.2754C23.1754 21.2754 22.8493 21.333 22.5423 21.4481C22.2162 20.815 21.679 20.3546 20.9692 20.1052C20.5855 19.9709 20.1826 19.8942 19.8181 19.8942C19.1658 19.8942 18.5519 20.086 18.0148 20.4697C17.4968 19.8366 16.7102 19.4529 15.9045 19.4529C15.1947 19.4529 14.504 19.7407 13.986 20.2395C13.3146 19.7215 10.648 18.0333 3.53053 16.4218C3.18521 16.345 2.39865 16.1148 1.89985 15.9805C1.82311 16.3642 1.76556 16.7479 1.70801 17.1508C1.70801 17.1508 3.03173 17.4577 3.28113 17.5153C10.5712 19.1268 12.9693 20.815 13.3721 21.1412C13.2379 21.4673 13.1611 21.8318 13.1611 22.1963C13.1611 23.6927 14.3889 24.9205 15.8853 24.9205C16.058 24.9205 16.2306 24.9013 16.3841 24.8821C16.6143 25.9948 17.3433 26.8197 18.4368 27.261C18.763 27.3761 19.0891 27.4528 19.4152 27.4528C19.6263 27.4528 19.8373 27.4336 20.0291 27.3761C20.2402 27.8941 20.7006 28.5463 21.7174 28.9684C22.0819 29.1219 22.4464 29.1986 22.7917 29.1986C23.0795 29.1986 23.3672 29.1411 23.6166 29.0451C24.1154 30.2538 25.2857 31.0403 26.5902 31.0403C27.4535 31.0403 28.2976 30.695 28.8924 30.0619C29.4103 30.3497 30.5039 30.8677 31.6165 30.8677C31.7508 30.8677 31.8851 30.8485 32.0386 30.8485C33.1321 30.7142 33.6501 30.2729 33.8803 29.9468C33.9187 29.8893 33.9571 29.8317 33.9954 29.755C34.264 29.8317 34.5326 29.8893 34.8587 29.8893C35.4534 29.8893 36.029 29.6782 36.6237 29.2562C37.1992 28.8341 37.6021 28.2586 37.6596 27.7406V27.7214C37.8515 27.7598 38.0433 27.779 38.2544 27.779C38.8683 27.779 39.4822 27.5871 40.0577 27.2034C41.1704 26.4744 41.3814 25.5152 41.3622 24.8821C41.5541 24.9205 41.7651 24.9397 41.957 24.9397C42.5325 24.9397 43.108 24.767 43.6452 24.4217C44.3358 23.9804 44.7579 23.2898 44.8154 22.5032C44.8538 21.9661 44.7195 21.4289 44.4509 20.9493C46.331 20.1436 50.6283 18.5704 55.693 17.4386C55.6547 17.0549 55.5971 16.652 55.5395 16.2683C49.4197 17.7071 44.8538 19.6831 43.7219 20.2011ZM26.6094 30.0811C25.42 30.0811 24.4608 29.1602 24.4032 27.9708C24.4032 27.8749 24.384 27.6063 24.1538 27.6063C24.0579 27.6063 23.9811 27.6639 23.8852 27.7406C23.6166 27.99 23.2905 28.2202 22.8109 28.2202C22.5999 28.2202 22.3505 28.1627 22.1011 28.0667C20.8541 27.5679 20.8349 26.7046 20.8733 26.3593C20.8924 26.2634 20.8924 26.1675 20.8349 26.0907L20.7582 26.014H20.6814C20.6239 26.014 20.5471 26.0332 20.4704 26.1099C20.1059 26.3593 19.7606 26.4936 19.3961 26.4936C19.2042 26.4936 18.9932 26.4552 18.8013 26.3785C17.1515 25.7262 17.2858 24.1723 17.3625 23.7119C17.3817 23.6159 17.3433 23.5392 17.2858 23.5008L17.1707 23.4049L17.0556 23.5008C16.7294 23.8078 16.3074 23.9804 15.8661 23.9804C14.9261 23.9804 14.1587 23.2131 14.1587 22.273C14.1587 21.333 14.9261 20.5656 15.8853 20.5656C16.7486 20.5656 17.4776 21.2179 17.5735 22.062L17.6311 22.5224L17.8805 22.1387C17.8997 22.1004 18.6095 21.0452 19.8757 21.0452C20.1251 21.0452 20.3745 21.0836 20.6239 21.1603C21.6406 21.4673 21.8133 22.3881 21.8325 22.7718C21.8517 23.002 22.0051 23.002 22.0435 23.002C22.1394 23.002 22.197 22.9445 22.2354 22.9061C22.4272 22.7143 22.8493 22.369 23.5015 22.369C23.8085 22.369 24.1154 22.4457 24.4416 22.58C26.0531 23.2706 25.3241 25.3234 25.3241 25.3425C25.1898 25.6879 25.1706 25.8413 25.3049 25.9181L25.3624 25.9564H25.4008C25.4775 25.9564 25.5735 25.9181 25.7077 25.8797C25.9188 25.803 26.2641 25.6879 26.571 25.6879C27.7797 25.707 28.7773 26.6855 28.7773 27.8941C28.7964 29.1027 27.818 30.0811 26.6094 30.0811Z" fill="#141685"/>
</g>
</svg>
