<svg id="visual" viewBox="0 0 900 600" width="900" height="600" xmlns="http://www.w3.org/2000/svg" xmlns:xlink="http://www.w3.org/1999/xlink" version="1.1"><g><g transform="translate(434 102)"><path d="M0 -74.3L64.4 -37.2L64.4 37.2L0 74.3L-64.4 37.2L-64.4 -37.2Z" fill="none" stroke="#ffffff" stroke-width="2"></path></g><g transform="translate(234 445)"><path d="M0 -35L30.3 -17.5L30.3 17.5L0 35L-30.3 17.5L-30.3 -17.5Z" fill="none" stroke="#ffffff" stroke-width="2"></path></g><g transform="translate(717 382)"><path d="M0 -66L57.2 -33L57.2 33L0 66L-57.2 33L-57.2 -33Z" fill="none" stroke="#ffffff" stroke-width="2"></path></g><g transform="translate(362 343)"><path d="M0 -35L30.3 -17.5L30.3 17.5L0 35L-30.3 17.5L-30.3 -17.5Z" fill="none" stroke="#ffffff" stroke-width="2"></path></g><g transform="translate(161 167)"><path d="M0 -62L53.7 -31L53.7 31L0 62L-53.7 31L-53.7 -31Z" fill="none" stroke="#ffffff" stroke-width="2"></path></g><g transform="translate(848 17)"><path d="M0 -67L58 -33.5L58 33.5L0 67L-58 33.5L-58 -33.5Z" fill="none" stroke="#ffffff" stroke-width="2"></path></g><g transform="translate(575 33)"><path d="M0 -72L62.4 -36L62.4 36L0 72L-62.4 36L-62.4 -36Z" fill="none" stroke="#ffffff" stroke-width="2"></path></g><g transform="translate(533 224)"><path d="M0 -55L47.6 -27.5L47.6 27.5L0 55L-47.6 27.5L-47.6 -27.5Z" fill="none" stroke="#ffffff" stroke-width="2"></path></g><g transform="translate(56 539)"><path d="M0 -36L31.2 -18L31.2 18L0 36L-31.2 18L-31.2 -18Z" fill="none" stroke="#ffffff" stroke-width="2"></path></g><g transform="translate(638 577)"><path d="M0 -35L30.3 -17.5L30.3 17.5L0 35L-30.3 17.5L-30.3 -17.5Z" fill="none" stroke="#ffffff" stroke-width="2"></path></g><g transform="translate(10 235)"><path d="M0 -55L47.6 -27.5L47.6 27.5L0 55L-47.6 27.5L-47.6 -27.5Z" fill="none" stroke="#ffffff" stroke-width="2"></path></g><g transform="translate(780 156)"><path d="M0 -54L46.8 -27L46.8 27L0 54L-46.8 27L-46.8 -27Z" fill="none" stroke="#ffffff" stroke-width="2"></path></g><g transform="translate(891 535)"><path d="M0 -65L56.3 -32.5L56.3 32.5L0 65L-56.3 32.5L-56.3 -32.5Z" fill="none" stroke="#ffffff" stroke-width="2"></path></g><g transform="translate(103 368)"><path d="M0 -51L44.2 -25.5L44.2 25.5L0 51L-44.2 25.5L-44.2 -25.5Z" fill="none" stroke="#ffffff" stroke-width="2"></path></g><g transform="translate(492 505)"><path d="M0 -51L44.2 -25.5L44.2 25.5L0 51L-44.2 25.5L-44.2 -25.5Z" fill="none" stroke="#ffffff" stroke-width="2"></path></g><g transform="translate(882 322)"><path d="M0 -55L47.6 -27.5L47.6 27.5L0 55L-47.6 27.5L-47.6 -27.5Z" fill="none" stroke="#ffffff" stroke-width="2"></path></g><g transform="translate(286 588)"><path d="M0 -31L26.8 -15.5L26.8 15.5L0 31L-26.8 15.5L-26.8 -15.5Z" fill="none" stroke="#ffffff" stroke-width="2"></path></g><g transform="translate(52 26)"><path d="M0 -34L29.4 -17L29.4 17L0 34L-29.4 17L-29.4 -17Z" fill="none" stroke="#ffffff" stroke-width="2"></path></g><g transform="translate(234 8)"><path d="M0 -72L62.4 -36L62.4 36L0 72L-62.4 36L-62.4 -36Z" fill="none" stroke="#ffffff" stroke-width="2"></path></g><g transform="translate(313 195)"><path d="M0 -37L32 -18.5L32 18.5L0 37L-32 18.5L-32 -18.5Z" fill="none" stroke="#ffffff" stroke-width="2"></path></g></g></svg>